<?xml version="1.0" encoding="utf-8"?>
<!-- Generator: Adobe Illustrator 17.1.0, SVG Export Plug-In . SVG Version: 6.00 Build 0)  -->
<svg version="1.2" baseProfile="tiny" id="Layer_1" xmlns="http://www.w3.org/2000/svg" xmlns:xlink="http://www.w3.org/1999/xlink"
	 x="0px" y="0px" viewBox="0 0 18.1 18.1" xml:space="preserve">
<path d="M15.5,4h-13C1.7,4,1,3.3,1,2.5v0C1,1.7,1.7,1,2.5,1h13C16.3,1,17,1.7,17,2.5v0C17,3.3,16.3,4,15.5,4z M17,8.5L17,8.5
	C17,7.7,16.3,7,15.5,7h-13C1.7,7,1,7.7,1,8.5v0C1,9.3,1.7,10,2.5,10h13C16.3,10,17,9.3,17,8.5z M17,14.5L17,14.5
	c0-0.9-0.7-1.5-1.5-1.5h-13C1.7,13,1,13.7,1,14.5v0C1,15.3,1.7,16,2.5,16h13C16.3,16,17,15.3,17,14.5z"/>
</svg>
