<?xml version="1.0" encoding="utf-8"?>
<!-- Generator: Adobe Illustrator 17.1.0, SVG Export Plug-In . SVG Version: 6.00 Build 0)  -->
<svg version="1.2" baseProfile="tiny" id="Layer_1" xmlns="http://www.w3.org/2000/svg" xmlns:xlink="http://www.w3.org/1999/xlink"
	 x="0px" y="0px" viewBox="0 0 18 18" xml:space="preserve">
<g>
	<path d="M14.8,3.4c-1.4-1.3-3.2-2.1-5.1-2.1c-1.9,0-3.7,0.8-5,2.1c-2.4,2.4-2.7,6.2-0.9,8.9l-2.2,2.1C1,15.1,1,16,1.6,16.6
		c0.3,0.3,0.7,0.4,1.1,0.4c0.4,0,0.8-0.2,1.1-0.4l2.2-2.2c1.1,0.8,2.5,1.2,3.9,1.2c1.9,0,3.7-0.8,5.1-2.1c1.3-1.3,2.1-3.1,2.1-5
		C16.9,6.6,16.1,4.8,14.8,3.4z M14.1,11.2c-1,1.6-2.7,2.5-4.4,2.5c-1.7,0-3.4-0.8-4.4-2.5c-1-1.6-1-3.8,0-5.4c1-1.6,2.7-2.5,4.4-2.5
		c1.7,0,3.4,0.8,4.4,2.5C15.1,7.4,15.1,9.5,14.1,11.2z"/>
</g>
</svg>
