<?xml version="1.0" encoding="utf-8"?>
<!-- Generator: Adobe Illustrator 17.1.0, SVG Export Plug-In . SVG Version: 6.00 Build 0)  -->
<svg version="1.2" baseProfile="tiny" id="Layer_1" xmlns="http://www.w3.org/2000/svg" xmlns:xlink="http://www.w3.org/1999/xlink"
	 x="0px" y="0px" viewBox="0 0 100 44" xml:space="preserve">
<path d="M10.2,11.1c0,0,2.4-1.7,4.5-1.7c2.1,0,5.6,1,6.5,3.3V36h-4.1V14.6c-0.7-0.8-1.6-1-2.4-1c-1.7,0-4.1,1.1-4.5,1.7V36H6.1V9.4
	h4.1V11.1z M89,9.4h-4.1V36H89V15.2c0.4-0.6,2.8-1.7,4.5-1.7c0.8,0,1.7,0.2,2.4,1V36h4.1V12.8c-0.9-2.3-4.4-3.3-6.5-3.3
	c-2.1,0-4.5,1.7-4.5,1.7V9.4z M54.2,9.5l-3.9,1.4l6,25.1h4.1c0,0,3.6-6.4,6.1-26.5l-4.1,0c-1.2,14.6-3.5,21.3-3.5,21.3L54.2,9.5z
	 M4.2,31.8H0V36h4.2V31.8z M54.1,36l-1-4.2h-2.3c-0.4,0-0.7,0-1.1,0c-3.3,0-5.2,0-5.3-1.8V13.6h5.2V9.4h-5.2V0h-4.1v30.9
	c0.5,4.4,2.1,5.2,9.4,5.1v0H54.1z M49.7,31.8L49.7,31.8c0.4,0,0.7,0,1.1,0H49.7z M75.4,13.6h-0.2c-1.6,0-2.8,0.1-3.6,0.2
	c-0.2,0.9-0.4,2.3-0.4,4.3c0,0.1,0,3.9,0,4c0,0.1,0,5.1,0,5.2c0,2,0.2,3.4,0.4,4.3c0.8,0.1,2,0.2,3.6,0.2h0.2c1.6,0,2.8-0.1,3.6-0.2
	c0.2-0.9,0.4-2.3,0.4-4.3c0-0.1,0-5.2,0-5.2l0-4c0-2-0.2-3.4-0.4-4.3C78.3,13.7,77,13.6,75.4,13.6 M75.4,9.4c3.1,0,6.2,0.3,6.7,1
	c1,1.3,1.5,4.5,1.5,7.7c0,0.1,0,9.2,0,9.2c0,3.2-0.5,6.3-1.5,7.7c-0.5,0.6-3.5,0.9-6.7,1h-0.2c-3.1,0-6.2-0.3-6.7-1
	c-1-1.3-1.5-4.5-1.5-7.7c0,0,0-9.1,0-9.2c0-3.2,0.5-6.4,1.5-7.7c0.5-0.6,3.5-0.9,6.7-1H75.4L75.4,9.4z M68.1,9.4 M37.4,31.8L39,36
	h-7.1v0c-7.3,0.1-8.9-0.7-9.4-5.1V18.3c0-3.3,0.4-6.5,1.5-7.9c0.5-0.6,3.5-0.9,6.7-1h0.2c3.1,0,6.2,0.3,6.7,1c1,1.4,1.5,4.6,1.5,7.9
	c0,3.3-0.5,6.5-1.5,7.9c-0.5,0.6-3.5,0.9-6.7,1h-0.2c-1.2,0-2.7,0-4,0v2.9c0,1.6,1.5,1.8,4.2,1.8c0.3,0,0.7,0,1.1,0
	c0.4,0,3.5,0,3.9,0H37.4z M26.6,18.3V23c1.4,0,2.8,0,4,0h0.2c1.6,0,2.8-0.1,3.6-0.2c0.2-0.9,0.4-2.4,0.4-4.5c0-2.1-0.2-3.6-0.4-4.5
	c-0.8-0.1-2-0.2-3.6-0.2h-0.2c-1.6,0-2.8,0.1-3.6,0.2C26.8,14.7,26.6,16.2,26.6,18.3z M100,40H0v4h100V40z"/>
</svg>
